<svg xmlns="http://www.w3.org/2000/svg" xml:space="preserve" viewBox="0 0 2475 1650"><path d="M0 0h2475v1650H0z" style="fill:#fff"/><linearGradient id="a" x1="87.412" x2="2305.994" y1="784.5" y2="784.5" gradientUnits="userSpaceOnUse"><stop offset="0" style="stop-color:#dae3fe"/><stop offset="1" style="stop-color:#e9effd"/></linearGradient><path d="M2220.024 816.008c-43.857-82.959-47.399-154.134-24.718-244.718 25.049-100.043 49.243-227.8-10.703-318.791-52.826-80.184-135.848-137.032-224.801-157.961-112.922-26.567-207.486 16.433-298.032 87.82-124.287 97.989-339.173 177.919-492.313 134.567-133.788-37.879-232.665-164.092-373.666-188.545-97.24-16.864-242.211 9.995-273.493 128.032-8.203 30.952-7.882 64.69-21.167 93.529-30.743 66.736-108.632 60.379-166.95 66.405-63.07 6.518-129.15 38.884-177.98 81.806-32.461 28.533-58.685 67.244-66.593 111.525-9.288 52.006 11.212 110.744 55.6 136.733 65.641 38.433 136.743 25.431 154.867 120.196 19.321 101.028 10.347 202.484 41.134 302.988 78.547 256.413 332.001 349.076 565.642 300.274 183.325-38.293 340.956-162.813 527.438-189.748 76.537-11.054 158.048-3.987 228.278 32.548 67.149 34.932 121.896 97.766 195.579 117.883 45.138 12.324 92.679 6.554 138.771-.602 82.031-12.736 169.177-32.787 226.604-97.066 41.343-46.275 61.605-109.754 73.974-172.536 27.458-139.371-15.118-226.394-77.471-344.339" style="fill:url(#a)"/><path d="M1910.3 923.014c31.924-24.077 48.47-63.268 43.595-102.955-5.204-42.369-.712-90.187 15.006-138.16 41.248-125.898 144.182-205.19 229.911-177.103s121.788 152.917 80.54 278.815c-8.007 24.439-18.339 47.121-30.419 67.602-18.318 31.057-20.624 69.007-5.587 101.778 14.284 31.128 17.327 67.512 5.823 102.626-15.708 47.944-54.679 81.748-100.3 93.002-27.023 6.667-50.545 23.044-65.91 46.251-43.6 65.852-112.466 100.45-173.432 80.476-78.135-25.599-113.699-131.138-79.432-235.726 16.334-49.863 45.593-90.501 80.205-116.606" style="fill:#bdd0fb"/><path d="M1841.913 1419.348a5.45 5.45 0 0 0 5.536-1.997c66.14-86.199 129.923-244.267 171.783-361.691 45.278-127.01 75.391-235.163 75.69-236.241a5.447 5.447 0 1 0-10.499-2.913c-1.191 4.293-120.519 431.171-245.618 594.212a5.447 5.447 0 0 0 1.006 7.638c.642.495 1.36.823 2.102.992" style="fill:#91b3fa"/><path d="m1700.884 1462.843 582.354.001v-116.558l-582.354.001c12.465-.001 12.465 116.556 0 116.556" style="fill:#91b3fa"/><linearGradient id="b" x1="1683.126" x2="2330.902" y1="1404.564" y2="1404.564" gradientUnits="userSpaceOnUse"><stop offset="0" style="stop-color:#4042e2"/><stop offset="1" style="stop-color:#4f52ff"/></linearGradient><path d="M2283.238 1433.676v-53.342c0-18.804-11.508-34.047-25.704-34.047H1703.34c-11.164 0-20.214-9.05-20.214-20.214a6.14 6.14 0 0 1 6.142-6.142h605.691c13.89 0 35.944 21.839 35.944 48.779v74.499c0 25.4-21.41 45.99-34.506 45.99h-603.942a9.33 9.33 0 0 1-9.328-9.328c0-9.404 7.623-17.027 17.027-17.027h561.066c12.159-.001 22.018-13.06 22.018-29.168" style="fill:url(#b)"/><path d="M2267.087 1372.419H1721.05a2.217 2.217 0 1 1 0-4.436h546.036a2.217 2.217 0 1 1 .001 4.436M2267.087 1389.721H1721.05a2.217 2.217 0 1 1 0-4.436h546.036a2.217 2.217 0 1 1 .001 4.436M2267.087 1407.021H1721.05a2.217 2.217 0 1 1 0-4.436h546.036a2.217 2.217 0 1 1 .001 4.436M2267.087 1424.323H1721.05a2.217 2.217 0 1 1 0-4.436h546.036a2.217 2.217 0 1 1 .001 4.436M2267.087 1441.623H1721.05a2.217 2.217 0 1 1 0-4.436h546.036a2.217 2.217 0 1 1 .001 4.436" style="fill:#bdd0fb"/><path d="M1778.501 1319.4h483.818c11.098 0 20.095-8.997 20.095-20.095v-86.297c0-11.098-8.997-20.095-20.095-20.095h-483.817c-11.098 0-20.095 8.997-20.095 20.095v86.297c-.001 11.098 8.996 20.095 20.094 20.095" style="fill:#7d97f4"/><path d="M2168.876 1304.864h47.076c4 0 7.242-3.242 7.242-7.242v-82.929c0-4-3.242-7.242-7.242-7.242h-47.076c-4 0-7.242 3.242-7.242 7.242v82.929a7.24 7.24 0 0 0 7.242 7.242M2133.151 1304.864h15.759a3.67 3.67 0 0 0 3.669-3.67v-90.074a3.67 3.67 0 0 0-3.669-3.67h-15.759a3.67 3.67 0 0 0-3.67 3.67v90.074a3.67 3.67 0 0 0 3.67 3.67M1915.839 188.734l104.447 190.545a188.04 188.04 0 0 1 8.2 163.85L1893.478 861.2a188.03 188.03 0 0 0-10.469 114.258l37.048 166.718c13.887 62.491-4.973 127.755-50.054 173.205-71.547 72.133-187.454 74.388-261.751 5.091l-117.803-109.874c-55.227-51.509-74.278-131.062-48.375-202l85.428-233.957a188 188 0 0 0 9.155-93.503l-50.602-324.07c-11.666-74.71 22.555-149.138 86.861-188.918l79.118-48.942c91.615-56.675 212.023-24.941 263.805 69.526" style="fill:#91b3fa"/><path d="M1723.07 1406.102c-43.173-259.908-32.491-529.445-15.926-709.791 9.912-107.929 22.566-192.613 31.437-244.648 5.903-34.638 10.596-57.587 13.493-70.74 6.284-28.538 8.028-29.934 10.671-32.047 4.145-3.316 10.189-2.641 13.5 1.499a9.61 9.61 0 0 1 .513 11.3c-10.626 26.978-115.472 555.255-34.738 1041.278.87 5.234-2.668 10.179-7.9 11.049a10 10 0 0 1-1.586.131c-4.613.001-8.683-3.332-9.464-8.031m51.675-1042.226.02-.016zm.034-.027.003-.003z" style="fill:#7d97f4"/><linearGradient id="c" x1="1458.368" x2="1931.365" y1="1101.708" y2="1101.708" gradientUnits="userSpaceOnUse"><stop offset="0" style="stop-color:#4042e2"/><stop offset="1" style="stop-color:#4f52ff"/></linearGradient><path d="M1473.383 709.42h457.982l-32.248 748.887c-.859 19.954-17.286 35.689-37.259 35.689h-403.49z" style="fill:url(#c)"/><path d="M1468.211 979.705h451.515l8.406-195.205h-456.186zM1936.012 724.437h-496.414v-56.309h488.724a13.736 13.736 0 0 1 13.271 10.195l7.691 28.84c2.324 8.719-4.248 17.274-13.272 17.274" style="fill:#7d97f4"/><linearGradient id="d" x1="1555.97" x2="1574.74" y1="882.102" y2="882.102" gradientUnits="userSpaceOnUse"><stop offset="0" style="stop-color:#4042e2"/><stop offset="1" style="stop-color:#4f52ff"/></linearGradient><path d="M1555.97 784.5h18.77v195.205h-18.77z" style="fill:url(#d)"/><linearGradient id="e" x1="1698.62" x2="1717.39" y1="882.102" y2="882.102" gradientUnits="userSpaceOnUse"><stop offset="0" style="stop-color:#4042e2"/><stop offset="1" style="stop-color:#4f52ff"/></linearGradient><path d="M1698.62 784.5h18.77v195.205h-18.77z" style="fill:url(#e)"/><linearGradient id="f" x1="1818.747" x2="1848.778" y1="882.102" y2="882.102" gradientUnits="userSpaceOnUse"><stop offset="0" style="stop-color:#4042e2"/><stop offset="1" style="stop-color:#4f52ff"/></linearGradient><path d="M1837.516 979.705h-18.769l11.262-195.205h18.769z" style="fill:url(#f)"/><path d="M1632.499 1257.497h-62.962a2.305 2.305 0 0 1-2.305-2.305V1068.35a2.305 2.305 0 0 1 2.305-2.305h62.962a2.305 2.305 0 0 1 2.305 2.305v186.842a2.306 2.306 0 0 1-2.305 2.305" style="opacity:.76;fill:#91b3fa"/><path d="M1793.918 1257.497h-62.962a2.304 2.304 0 0 1-2.304-2.304V1068.35a2.304 2.304 0 0 1 2.304-2.304h62.962a2.305 2.305 0 0 1 2.305 2.305v186.842a2.305 2.305 0 0 1-2.305 2.304" style="fill:#91b3fa"/><linearGradient id="g" x1="1395.968" x2="763.64" y1="44.689" y2="1269.824" gradientUnits="userSpaceOnUse"><stop offset="0" style="stop-color:#4042e2"/><stop offset="1" style="stop-color:#4f52ff"/></linearGradient><path d="m380.984 382.827 62.78 1111.169h1044.635l45.048-1111.169z" style="fill:url(#g)"/><path d="M1537.415 405.35H375.479a12.88 12.88 0 0 1-12.308-9.09l-7.091-23.046c-2.548-8.281 3.644-16.664 12.308-16.664H1540.96c7.892 0 13.928 7.035 12.728 14.836l-3.546 23.046a12.876 12.876 0 0 1-12.727 10.918" style="fill:#7d97f4"/><path d="m1523.402 630.587 6.392-157.665H386.074l8.908 157.665z" style="fill:#91b3fa"/><linearGradient id="h" x1="442.441" x2="669.952" y1="1577.746" y2="-1232.224" gradientUnits="userSpaceOnUse"><stop offset="0" style="stop-color:#4042e2"/><stop offset="1" style="stop-color:#4f52ff"/></linearGradient><path d="M512.372 472.922h26.278v157.666h-26.278z" style="fill:url(#h)"/><linearGradient id="i" x1="621.457" x2="848.968" y1="1592.24" y2="-1217.73" gradientUnits="userSpaceOnUse"><stop offset="0" style="stop-color:#4042e2"/><stop offset="1" style="stop-color:#4f52ff"/></linearGradient><path d="M692.562 472.922h26.278v157.666h-26.278z" style="fill:url(#i)"/><linearGradient id="j" x1="800.473" x2="1027.985" y1="1606.735" y2="-1203.236" gradientUnits="userSpaceOnUse"><stop offset="0" style="stop-color:#4042e2"/><stop offset="1" style="stop-color:#4f52ff"/></linearGradient><path d="M872.751 472.922h26.278v157.666h-26.278z" style="fill:url(#j)"/><linearGradient id="k" x1="979.489" x2="1207" y1="1621.228" y2="-1188.742" gradientUnits="userSpaceOnUse"><stop offset="0" style="stop-color:#4042e2"/><stop offset="1" style="stop-color:#4f52ff"/></linearGradient><path d="M1052.941 472.922h26.278v157.666h-26.278z" style="fill:url(#k)"/><linearGradient id="l" x1="1158.505" x2="1386.017" y1="1635.723" y2="-1174.248" gradientUnits="userSpaceOnUse"><stop offset="0" style="stop-color:#4042e2"/><stop offset="1" style="stop-color:#4f52ff"/></linearGradient><path d="M1233.131 472.922h26.278v157.666h-26.278z" style="fill:url(#l)"/><linearGradient id="m" x1="1337.521" x2="1565.033" y1="1650.217" y2="-1159.754" gradientUnits="userSpaceOnUse"><stop offset="0" style="stop-color:#4042e2"/><stop offset="1" style="stop-color:#4f52ff"/></linearGradient><path d="M1413.32 472.922h26.278v157.666h-26.278z" style="fill:url(#m)"/><path d="M523.634 694.405h270.481v116.372H523.634z" style="fill:#91b3fa"/><path d="M533.652 705.666h250.445v97.603H533.652z" style="fill:#bdd0fb"/><path d="M819.159 694.405h270.481v116.372H819.159z" style="fill:#91b3fa"/><path d="M829.177 705.666h250.445v97.603H829.177z" style="fill:#bdd0fb"/><path d="M1114.685 694.405h270.481v116.372h-270.481z" style="fill:#91b3fa"/><path d="M1124.703 705.666h250.445v97.603h-250.445z" style="fill:#bdd0fb"/><linearGradient id="n" x1="734.103" x2="1086.103" y1="1070.875" y2="1870.875" gradientUnits="userSpaceOnUse"><stop offset="0" style="stop-color:#4042e2"/><stop offset="1" style="stop-color:#4f52ff"/></linearGradient><path d="M579.943 1081.061h510.537v439.212H579.943z" style="fill:url(#n)"/><path d="M632.498 1520.274h-81.674c-6.724 0-12.175-5.451-12.175-12.175v-442.053h93.848z" style="fill:#7d97f4"/><linearGradient id="o" x1="642.883" x2="1054.884" y1="1031.197" y2="1753.198" gradientUnits="userSpaceOnUse"><stop offset="0" style="stop-color:#09005d"/><stop offset="1" style="stop-color:#1a0f91"/></linearGradient><path d="M670.038 1216.204h330.348v304.07H670.038z" style="fill:url(#o)"/><path d="m498.912 886.029 13.46 228.818h525.553v405.427h342.339c18.468 0 33.645-14.575 34.392-33.029l23.914-591.026c.563-13.897-10.463-25.516-24.371-25.682L523.85 859.895c-14.319-.171-25.779 11.838-24.938 26.134" style="fill:#91b3fa"/><linearGradient id="p" x1="1128.903" x2="669.699" y1="910.973" y2="1029.324" gradientUnits="userSpaceOnUse"><stop offset="0" style="stop-color:#4042e2"/><stop offset="1" style="stop-color:#4f52ff"/></linearGradient><path d="M507.956 1039.768h582.524v-86.341H502.877z" style="fill:url(#p)"/><path d="M594.959 953.427h22.524v86.341h-22.524zM696.315 953.427h22.524v86.341h-22.524zM797.672 953.427h22.524v86.341h-22.524zM899.029 953.427h22.524v86.341h-22.524zM1000.386 953.427h22.524v86.341h-22.524z" style="fill:#91b3fa"/><path d="M456.705 1230.539c.792-14.588-.315-29.056-5.093-43.327-12.04-35.956-45.699-59.704-73.1-83.595-25.184-21.958-52.467-58.925-4.675-74.457 38.076-12.374 96.657 6.384 117.495 42.641 24.662 42.912 26.311 109.245 69.568 139.573 60.514 42.427 81.444 18.267 121.782 115.495 17.236 41.545 3.732 74.008-17.389 97.566-33.337 37.183-86.283 49.714-132.739 31.388-41.041-16.19-75.354-49.706-86.435-93.05-11.189-43.776 8.213-88.545 10.586-132.234" style="fill:#bdd0fb"/><path d="M616.788 1532.344a3.33 3.33 0 0 1-3.287-2.837c-33.829-227.22-96.411-344.956-142.953-403.716-50.257-63.447-93.043-73.519-93.469-73.614a3.33 3.33 0 0 1-2.535-3.96 3.32 3.32 0 0 1 3.951-2.541c1.815.392 45.03 10.371 96.689 75.252 47.255 59.351 110.752 178.242 144.9 407.6a3.328 3.328 0 0 1-3.296 3.816" style="fill:#7d97f4"/><path d="M377.448 1143.28c1.582-1.223 3.477-2.186 5.662-2.812 12.082-3.458 21.863 6.738 29.197 14.841 6.28 6.939 13.799 15.404 15.746 24.937 2.104 10.306-4.796 22.288-16.164 15.654-12.921-7.541-32.468-19.24-38.595-33.795-3.046-7.235-1.326-14.589 4.154-18.825" style="fill:#bdd0fb"/><path d="M360.48 1436.826c-28.853-18.04-21.116-69.479-29.113-104.679-4.228-18.611-10.003-36.426-20.056-52.772-9.995-16.252-25.982-31.683-25.636-52.15.7-41.236 43.412-40.323 75.011-22.608 36.668 20.557 63.92 67.701 88.97 102.317 15.101 20.868 33.233 41.176 45.919 63.563 21.016 37.085 23.437 67.88 12.345 93.958-10.639 25.013-42.541 54.255-63.435 36.87-15.777-13.127-39.567-36.715-84.005-64.499" style="fill:#91b3fa"/><path d="M502.424 1548.86a3.326 3.326 0 0 1-3.238-2.58c-.462-2.004-47.599-201.704-170.355-326.393a3.33 3.33 0 0 1 .037-4.707 3.333 3.333 0 0 1 4.705.037c124.099 126.054 171.632 327.548 172.098 329.569a3.33 3.33 0 0 1-3.247 4.074" style="fill:#7d97f4"/><linearGradient id="q" x1="1819.849" x2="1891.81" y1="857.808" y2="937.591" gradientUnits="userSpaceOnUse"><stop offset="0" style="stop-color:#09005d"/><stop offset="1" style="stop-color:#1a0f91"/></linearGradient><path d="M1830.339 903.794s-6.481-24.398 28.014-28.464c34.495-4.067 44.09 55.302 16.743 63.324s-44.757-34.86-44.757-34.86" style="fill:url(#q)"/><linearGradient id="r" x1="1913.071" x2="1924.9" y1="1465.118" y2="826.333" gradientUnits="userSpaceOnUse"><stop offset="0" style="stop-color:#09005d"/><stop offset="1" style="stop-color:#1a0f91"/></linearGradient><path d="M2065.387 1032.837a56.96 56.96 0 0 0-41.42-18.293l-206.379-1.462a56.96 56.96 0 0 0-56.607 66.19l41.324 251.487h259.809l18.26-255.195a56.95 56.95 0 0 0-14.987-42.727" style="fill:url(#r)"/><linearGradient id="s" x1="1785.489" x2="1873.412" y1="1166.775" y2="1166.775" gradientUnits="userSpaceOnUse"><stop offset="0" style="stop-color:#ff928e"/><stop offset="1" style="stop-color:#feb3b1"/></linearGradient><path d="m1785.489 1155.167 71.784-3.031 16.139 29.278-87.923-6.654z" style="fill:url(#s)"/><linearGradient id="t" x1="2209.638" x2="2788.697" y1="1598.477" y2="1925.51" gradientUnits="userSpaceOnUse"><stop offset="0" style="stop-color:#09005d"/><stop offset="1" style="stop-color:#1a0f91"/></linearGradient><path d="M1832.068 1428.352h184.094v17.744h-184.094z" style="fill:url(#t)"/><linearGradient id="u" x1="1628.715" x2="1805.733" y1="1741.249" y2="1486.223" gradientUnits="userSpaceOnUse"><stop offset="0" style="stop-color:#09005d"/><stop offset="1" style="stop-color:#1a0f91"/></linearGradient><path d="m1818.175 1341.849 13.153 212.992c.087 1.421 1.132 2.154 2.391 2.154h8.675c1.324 0 2.982-.475 2.982-1.973v-213.173z" style="fill:url(#u)"/><linearGradient id="v" x1="-1173.053" x2="-593.995" y1="813.535" y2="1140.568" gradientTransform="matrix(-1 0 0 1 1968 0)" gradientUnits="userSpaceOnUse"><stop offset="0" style="stop-color:#09005d"/><stop offset="1" style="stop-color:#1a0f91"/></linearGradient><path d="m2035.539 1341.849-13.153 212.992c-.087 1.421-1.132 2.154-2.391 2.154h-8.675c-1.324 0-1.812-.475-1.812-1.973v-213.173z" style="fill:url(#v)"/><linearGradient id="w" x1="1931.315" x2="1929.315" y1="1065.386" y2="1253.386" gradientUnits="userSpaceOnUse"><stop offset="0" style="stop-color:#09005d"/><stop offset="1" style="stop-color:#1a0f91"/></linearGradient><path d="M2087.138 1325.443c0 16.411-13.304 29.714-29.715 29.714h-257.746c-16.411 0-29.714-13.303-29.714-29.714v-.457c0-16.411 13.304-29.714 29.714-29.714h257.746c16.411 0 29.715 13.304 29.715 29.714z" style="fill:url(#w)"/><linearGradient id="x" x1="5416.085" x2="5210.639" y1="1850.691" y2="1967.957" gradientTransform="scale(-1 1)rotate(23.722 3100.239 -15021.623)" gradientUnits="userSpaceOnUse"><stop offset="0" style="stop-color:#ff928e"/><stop offset="1" style="stop-color:#feb3b1"/></linearGradient><path d="M1672.47 1522.93c.189-.187 28.357-268.039 36.024-295.449a13.99 13.99 0 0 1 9.414-9.621l35.914-10.931 77.452 45.508-83.13 14.061c26.696 42.804-29.254 148.441-47.788 186.16a7.383 7.383 0 0 0 3.792 10.079l17.153 7.135c-10.696 28.026-27.435 50.361-50.003 67.206z" style="fill:url(#x)"/><linearGradient id="y" x1="1438.275" x2="1391.275" y1="2013.99" y2="2082.99" gradientTransform="rotate(-49.904 2104.849 1660.259)" gradientUnits="userSpaceOnUse"><stop offset="0" style="stop-color:#09005d"/><stop offset="1" style="stop-color:#1a0f91"/></linearGradient><path d="M1711.589 1466.22s8.562-.873 14.035 4.689c2.619 2.661 2.9 6.855.996 10.067-8.459 14.271-36.634 60.725-52.969 74.577-1.339 1.136-3.417.386-3.76-1.336-.954-4.789-1.666-14.879 2.775-32.058l-.1 2.22c-.127 2.809 3.443 4.108 5.129 1.857 9.451-12.619 28.229-39.401 33.894-60.016" style="fill:url(#y)"/><linearGradient id="z" x1="1951.071" x2="1841.071" y1="1228.485" y2="1310.486" gradientUnits="userSpaceOnUse"><stop offset="0" style="stop-color:#ff928e"/><stop offset="1" style="stop-color:#feb3b1"/></linearGradient><path d="M1725.101 1534.817c.176-.2 6.177-52.124 6.353-52.323-13.07-112.599 3.706-217.024 9.49-244.893a13.99 13.99 0 0 1 8.738-10.239l35.087-13.349 82.729 63.633-84.341-3.817c29.546 40.889-19.088 150.087-35.013 188.979a7.383 7.383 0 0 0 4.469 9.798l17.598 5.952c-8.764 28.689-23.945 52.11-45.315 70.451z" style="fill:url(#z)"/><linearGradient id="A" x1="1012.955" x2="965.955" y1="2023.474" y2="2092.474" gradientTransform="rotate(-53.806 2785.258 1291.632)" gradientUnits="userSpaceOnUse"><stop offset="0" style="stop-color:#09005d"/><stop offset="1" style="stop-color:#1a0f91"/></linearGradient><path d="M1760.271 1475.577s8.483-1.453 14.322 3.724c2.794 2.477 3.359 6.642 1.679 9.976-7.469 14.813-32.418 63.077-47.773 78.008-1.259 1.224-3.383.617-3.842-1.077-1.278-4.714-2.675-14.731.588-32.173l.051 2.222c.065 2.812 3.714 3.865 5.243 1.504 8.57-13.234 25.482-41.231 29.732-62.184" style="fill:url(#A)"/><linearGradient id="B" x1="1875.044" x2="1688.067" y1="1243.689" y2="1581.686" gradientUnits="userSpaceOnUse"><stop offset="0" style="stop-color:#fe7062"/><stop offset="1" style="stop-color:#ff928e"/></linearGradient><path d="M2005.506 1276.739c-2.776-22.958-36.614-73.286-36.614-73.286s-131.245-4.269-146.572 1.679c-11.896 4.617-60.439 2.008-81.574.609a1.658 1.658 0 0 0-.771 3.173c51.622 22.455 56.585 35.252 63.411 78.778 0 0 51.954 31.586 157.347 22.873 35.416-2.929 47.549-10.868 44.773-33.826" style="fill:url(#B)"/><linearGradient id="C" x1="1830.122" x2="2070.122" y1="1231.433" y2="859.433" gradientUnits="userSpaceOnUse"><stop offset="0" style="stop-color:#fe7062"/><stop offset="1" style="stop-color:#ff928e"/></linearGradient><path d="M1877.383 1195.997s-39.404-37.52-58.8-62.372c-10.484-13.434-13.777-31.118-8.928-47.454 8.855-29.834 24.593-60.734 26.028-65.544 2.2-7.372 46.382-7.065 46.382-7.065s86.941 56.426 121.1 152.007l-38.363 11.943s-22.701-38.084-45.13-62.297c0 0 38.811 51.27 40.177 72.259z" style="fill:url(#C)"/><linearGradient id="D" x1="1836.379" x2="1871.713" y1="962.651" y2="1037.318" gradientUnits="userSpaceOnUse"><stop offset="0" style="stop-color:#ff928e"/><stop offset="1" style="stop-color:#feb3b1"/></linearGradient><path d="M1830.339 979.429c.461 1.532 11.993 39.761 12.895 40.555s25.29 2.105 36.769-5.74l-23.43-51.83z" style="fill:url(#D)"/><linearGradient id="E" x1="1691.19" x2="1696.523" y1="3744.311" y2="3658.978" gradientTransform="rotate(-43.699 4020.973 297.395)" gradientUnits="userSpaceOnUse"><stop offset="0" style="stop-color:#ff928e"/><stop offset="1" style="stop-color:#feb3b1"/></linearGradient><path d="M1798.624 936.487s-8.21 18.964 1.436 47.795 25.41 31.337 35.393 24.209 22.928-19.864 24.537-45.981c1.61-26.117-50.057-50.009-61.366-26.023" style="fill:url(#E)"/><linearGradient id="F" x1="1963.364" x2="1584.546" y1="793.26" y2="1213.254" gradientUnits="userSpaceOnUse"><stop offset="0" style="stop-color:#09005d"/><stop offset="1" style="stop-color:#1a0f91"/></linearGradient><path d="M1842.757 904.466c-9.398-5.172-19.208-6.606-28.298-5.275-6.889.973-13.368 3.534-18.976 7.248-5.71 3.738-10.262 8.654-13.643 14.314-1.104 2.288-1.883 4.711-2.383 7.252a32.25 32.25 0 0 0 6.901 26.901 159 159 0 0 0 9.377 10.21l.813-5.871c0-7.349 5.784-15.292 12.953-17.571 7.17-2.279 14.743-.486 20.197 4.661 7.068 6.682 10.931 15.645 10.931 15.645l2.342-.692s-.186-11.42 7.06-8.757c7.221 2.689 10.175 17.771 10.175 17.771s15.356 7.042 16.79-13.494c1.436-20.514-7.608-37.746-34.239-52.342" style="fill:url(#F)"/><linearGradient id="G" x1="1720.435" x2="1725.769" y1="3746.138" y2="3660.805" gradientTransform="rotate(-43.699 4020.973 297.395)" gradientUnits="userSpaceOnUse"><stop offset="0" style="stop-color:#ff928e"/><stop offset="1" style="stop-color:#feb3b1"/></linearGradient><path d="M1846.499 961.288s-9.073-20.006 3.635-20.729 7.538 19.286 5.005 26.586z" style="fill:url(#G)"/><linearGradient id="H" x1="1967.912" x2="1943.912" y1="797.537" y2="957.537" gradientUnits="userSpaceOnUse"><stop offset="0" style="stop-color:#ff928e"/><stop offset="1" style="stop-color:#feb3b1"/></linearGradient><path d="m1802.306 1210.803 29.608-32.214 34.194 9.208s39.865 6.177 62.681 0l22.816-6.176 51.56-16.052 8.098 22.885c2.056 5.81-.01 12.261-5.034 15.831-4.461 3.17-9.689 6.653-13.022 8.111-6.79 2.971-156.413.939-156.413.939z" style="fill:url(#H)"/><linearGradient id="I" x1="1727.733" x2="1840.634" y1="1152.136" y2="1152.136" gradientUnits="userSpaceOnUse"><stop offset="0" style="stop-color:#dae3fe"/><stop offset="1" style="stop-color:#e9effd"/></linearGradient><path d="m1840.384 1210.999-56.76-125.669a2.814 2.814 0 0 0-3.376-1.537l-50.511 15.198a2.813 2.813 0 0 0-1.828 3.674l43.027 116.097a2.816 2.816 0 0 0 2.885 1.826l64.244-5.626a2.815 2.815 0 0 0 2.319-3.963" style="fill:url(#I)"/><linearGradient id="J" x1="1736.089" x2="1768.775" y1="1093.492" y2="1093.492" gradientUnits="userSpaceOnUse"><stop offset="0" style="stop-color:#4042e2"/><stop offset="1" style="stop-color:#4f52ff"/></linearGradient><path d="m1768.565 1089.725-1.569-3.56a2.45 2.45 0 0 0-3.07-1.316l-7.484 2.692a.78.78 0 0 1-.889-.27l-1.328-1.799a3.715 3.715 0 0 0-4.461-1.202l-6.687 3.018c-1.36.588-1.947 1.928-1.947 3.408v2.163c0 .341-.514.642-.84.743l-2.384.694c-.66.205-1.275.678-1.567 1.304s-.343 1.345-.076 1.982l1.631 3.932a2.44 2.44 0 0 0 3.112 1.345l26.186-9.857a2.44 2.44 0 0 0 1.373-3.277" style="fill:url(#J)"/><linearGradient id="K" x1="1737.979" x2="1757.611" y1="1157.225" y2="1157.225" gradientUnits="userSpaceOnUse"><stop offset="0" style="stop-color:#ff928e"/><stop offset="1" style="stop-color:#feb3b1"/></linearGradient><path d="M1738.049 1147.635s10.813-14.694 11.229-10.258 0 14.001 0 14.001 2.079 1.802 5.129 8.456 4.692 17.09 1.375 18.041c-3.316.951-18.98-19.566-17.733-30.24" style="fill:url(#K)"/><linearGradient id="L" x1="1836.889" x2="1850.933" y1="1164.386" y2="1164.386" gradientUnits="userSpaceOnUse"><stop offset="0" style="stop-color:#09005d"/><stop offset="1" style="stop-color:#1a0f91"/></linearGradient><path d="M1850.58 1147.33a1.7 1.7 0 0 0-1.349-.665 2.63 2.63 0 0 0-2.515 1.86l-9.827 32.057 5.142 1.525 8.846-33.302a1.7 1.7 0 0 0-.297-1.475" style="fill:url(#L)"/><path d="M1789.895 953.328a.56.56 0 0 1-.428-.201c-.173-.21-17.119-21.212.053-36.989a.554.554 0 1 1 .749.819c-16.406 15.073-.114 35.263.053 35.464a.556.556 0 0 1-.427.907" style="fill:#bdd0fb"/><linearGradient id="M" x1="1009.188" x2="1477.187" y1="1407.281" y2="1407.281" gradientUnits="userSpaceOnUse"><stop offset="0" style="stop-color:#09005d"/><stop offset="1" style="stop-color:#1a0f91"/></linearGradient><path d="M1009.188 1386.209h467.999v42.142h-467.999z" style="fill:url(#M)"/><linearGradient id="N" x1="999.176" x2="1041.133" y1="1471.603" y2="1471.603" gradientUnits="userSpaceOnUse"><stop offset="0" style="stop-color:#09005d"/><stop offset="1" style="stop-color:#1a0f91"/></linearGradient><path d="m999.176 1381.774 16.535 167.51c.699 7.084 3.593 12.148 6.942 12.148h6.622c3.748 0 6.851-6.305 7.084-14.398l4.775-165.261z" style="fill:url(#N)"/><linearGradient id="O" x1="-1761.626" x2="-1719.669" y1="1471.603" y2="1471.603" gradientTransform="matrix(-1 0 0 1 -263.583 0)" gradientUnits="userSpaceOnUse"><stop offset="0" style="stop-color:#09005d"/><stop offset="1" style="stop-color:#1a0f91"/></linearGradient><path d="m1498.042 1381.774-16.535 167.51c-.699 7.084-3.593 12.148-6.942 12.148h-6.622c-3.748 0-6.85-6.305-7.084-14.398l-4.774-165.261z" style="fill:url(#O)"/><linearGradient id="P" x1="1139.418" x2="1569.897" y1="1210.519" y2="1742.993" gradientUnits="userSpaceOnUse"><stop offset="0" style="stop-color:#ff928e"/><stop offset="1" style="stop-color:#feb3b1"/></linearGradient><path d="M1541.416 1325.457c-5.551-5.522-13.221-8.601-21.05-8.559l-437.229 2.402c-12.33.068-23.725-6.684-29.558-17.547l-147.633-274.935c-9.61-17.897-30.717-26.28-49.99-19.856l-3.946 1.313a41.745 41.745 0 0 0-25.215 55.95l123.608 290.48c11.64 27.355 38.209 45.367 67.929 46.051l485.749 11.193c12.027.278 23.95-4.306 32.554-12.714s13.747-19.93 13.747-31.961v-20.962c-.001-7.828-3.415-15.334-8.966-20.855" style="fill:url(#P)"/><linearGradient id="Q" x1="12.325" x2="-12.228" y1="1343.611" y2="1415.826" gradientTransform="rotate(-30.131 83.103 -1222.672)" gradientUnits="userSpaceOnUse"><stop offset="0" style="stop-color:#ff928e"/><stop offset="1" style="stop-color:#feb3b1"/></linearGradient><path d="m1345.532 1021.196-3.097-5.037a11.2 11.2 0 0 0-8.164-5.249l-32.962-4.086s-1.462-3.701 4.594-8.084 2.478-11.518 2.478-11.518-8.1 6.644-19.821 16.883c-6.704 5.856-9.248 13.733-10.201 19.407l-5.276 11.566c2.945 3.469 7.496 6.218 14.417 5.341l1.199-8.854c19.82.65 38.677-3.218 56.833-10.369" style="fill:url(#Q)"/><linearGradient id="R" x1="1282.499" x2="1246.499" y1="900.553" y2="1021.553" gradientUnits="userSpaceOnUse"><stop offset="0" style="stop-color:#e1473d"/><stop offset="1" style="stop-color:#e9605a"/></linearGradient><path d="M1273.083 1034.23c-3.549 7.78-7.076 15.571-10.623 23.353-4.561 10.007-8.37 22.792-15.705 31.149-8.648 9.852-22.812 8.125-31.669-.484-9.711-9.438-20.083-18.123-30.125-27.214-2.649-2.398-5.369-4.715-8.039-7.088l-.758 61.11c24.476 11.154 51.429 30.021 79.468 20.434 7.722-2.64 15.459-7.553 19.846-14.599 2.628-4.221 4.87-10.069 5.377-15.043l6.749-66.194c-7.988 1.012-11.123-1.42-14.521-5.424" style="fill:url(#R)"/><linearGradient id="S" x1="2457.974" x2="2364.641" y1="1071.091" y2="881.758" gradientTransform="translate(-1375.161)" gradientUnits="userSpaceOnUse"><stop offset="0" style="stop-color:#4042e2"/><stop offset="1" style="stop-color:#4f52ff"/></linearGradient><path d="M1303.458 1540.952c-24.242 0-34.968-2.08-39.763-3.976.932 3.981 4.478 7.124 8.958 7.124h85.76c2.888 0 4.711-2.765 4.021-5.267-9.776.786-30.539 2.119-58.976 2.119" style="fill:url(#S)"/><linearGradient id="T" x1="2715.043" x2="2688.025" y1="1350.394" y2="1537.064" gradientTransform="translate(-1375.161)" gradientUnits="userSpaceOnUse"><stop offset="0" style="stop-color:#09005d"/><stop offset="1" style="stop-color:#1a0f91"/></linearGradient><path d="M1362.433 1538.833c-.139-.505-.344-1.001-.702-1.46-6.532-8.34-19.656-21.439-37.506-21.188-26.151.368-35.269 3.205-55.591.159l-4.794 15.891a9.1 9.1 0 0 0-.145 4.74c4.796 1.897 15.522 3.976 39.763 3.976 28.437.001 49.2-1.332 58.975-2.118" style="fill:url(#T)"/><linearGradient id="U" x1="2643.796" x2="2670.55" y1="1510.739" y2="1510.739" gradientTransform="translate(-1375.161)" gradientUnits="userSpaceOnUse"><stop offset="0" style="stop-color:#ff928e"/><stop offset="1" style="stop-color:#feb3b1"/></linearGradient><path d="m1274.519 1499.221-5.885 20.014s13.037 5.935 24.503 1.171l2.251-17.34z" style="fill:url(#U)"/><linearGradient id="V" x1="2581.888" x2="2488.555" y1="1009.999" y2="820.665" gradientTransform="translate(-1375.161)" gradientUnits="userSpaceOnUse"><stop offset="0" style="stop-color:#4042e2"/><stop offset="1" style="stop-color:#4f52ff"/></linearGradient><path d="M1452.266 1528.348c-18.897 15.184-28.555 20.289-33.476 21.821 3.208 2.505 7.931 2.722 11.424-.084l66.853-53.716c2.251-1.809 1.949-5.095-.149-6.605-7.13 6.733-22.485 20.773-44.652 38.584" style="fill:url(#V)"/><linearGradient id="W" x1="2848.868" x2="2821.85" y1="1369.763" y2="1556.433" gradientTransform="translate(-1375.161)" gradientUnits="userSpaceOnUse"><stop offset="0" style="stop-color:#09005d"/><stop offset="1" style="stop-color:#1a0f91"/></linearGradient><path d="M1496.918 1489.764c-.423-.304-.892-.562-1.457-.693-10.292-2.379-28.687-4.322-42.446 7.054-20.156 16.666-25.495 24.578-43.236 34.943l6.169 15.332a9.03 9.03 0 0 0 2.842 3.769c4.921-1.532 14.578-6.637 33.476-21.821 22.167-17.811 37.522-31.851 44.652-38.584" style="fill:url(#W)"/><linearGradient id="X" x1="2495.852" x2="2707.65" y1="1390.012" y2="1390.012" gradientTransform="translate(-1375.161)" gradientUnits="userSpaceOnUse"><stop offset="0" style="stop-color:#09005d"/><stop offset="1" style="stop-color:#1a0f91"/></linearGradient><path d="M1148.632 1271.191s145.135 11.85 174.909 25.867c29.773 14.016-24.297 210.455-24.297 210.455s-8.105 3.901-26.141-1.706c0 0 18.495-144.965 4.732-176.399l-157.144-25.703z" style="fill:url(#X)"/><linearGradient id="Y" x1="6607.767" x2="6584.148" y1="3527.499" y2="3515.046" gradientTransform="translate(-1375.161)" gradientUnits="userSpaceOnUse"><stop offset="0" style="stop-color:#ff928e"/><stop offset="1" style="stop-color:#feb3b1"/></linearGradient><path d="M1395.359 1503.474c1.348 1.228 14.42 27.594 14.42 27.594s14.554-3.149 17.522-12.359l-13.095-23.797z" style="fill:url(#Y)"/><linearGradient id="Z" x1="2688.239" x2="2455.72" y1="1301.769" y2="1565.399" gradientTransform="translate(-1375.161)" gradientUnits="userSpaceOnUse"><stop offset="0" style="stop-color:#09005d"/><stop offset="1" style="stop-color:#1a0f91"/></linearGradient><path d="M1061.219 1269.978s-4.73 11.38-4.536 26.504c.267 20.915 17.081 37.887 37.972 38.93l171.574 7.824a8.23 8.23 0 0 1 7.597 6.185c4.032 15.595 23.739 63.485 120.072 159.046a7.77 7.77 0 0 0 9.608 1.047l13.713-8.662a3.16 3.16 0 0 0 1.039-4.266l-99.899-170.593a38.67 38.67 0 0 0-23.491-17.422l-146.234-37.38z" style="fill:url(#Z)"/><linearGradient id="aa" x1="2497.449" x2="2289.043" y1="1173.757" y2="1522.839" gradientTransform="translate(-1375.161)" gradientUnits="userSpaceOnUse"><stop offset="0" style="stop-color:#fe7062"/><stop offset="1" style="stop-color:#ff928e"/></linearGradient><path d="M1060.755 1269.475s-1.701-85.039 15.299-165.069c6.278-29.553 22.615-56.012 46.347-74.709l7.939-6.255 39.763 16.154 20.434 35.308c11.25 22.498 8.487 71.36 0 95.039-14.19 39.593-25.538 80.622-30.375 100.776.001-.002-65.857 8.696-99.407-1.244" style="fill:url(#aa)"/><linearGradient id="ab" x1="1182.191" x2="1132.858" y1="955.943" y2="1079.276" gradientUnits="userSpaceOnUse"><stop offset="0" style="stop-color:#ff928e"/><stop offset="1" style="stop-color:#feb3b1"/></linearGradient><path d="m1157.678 960.068-31.065 72.07s9.941 22.367 44.733 13.669l12.426-49.704z" style="fill:url(#ab)"/><linearGradient id="ac" x1="1360.585" x2="1260.585" y1="902.171" y2="940.171" gradientUnits="userSpaceOnUse"><stop offset="0" style="stop-color:#ff928e"/><stop offset="1" style="stop-color:#feb3b1"/></linearGradient><path d="M1219.24 927.199c.374 1.007 1.198 72.011 1.198 72.011l-40.553-.392-10.778-67.182c0 .001 43.864-21.289 50.133-4.437" style="fill:url(#ac)"/><linearGradient id="ad" x1="1529.64" x2="1626.952" y1="3292.168" y2="3292.168" gradientTransform="rotate(-20.409 -5082.009 3175.778)" gradientUnits="userSpaceOnUse"><stop offset="0" style="stop-color:#09005d"/><stop offset="1" style="stop-color:#1a0f91"/></linearGradient><path d="m1181.001 944.555 2.905 35.81c.037.459.133.9.293 1.332.98 2.645 5.018 11.495 13.821 6.812 7.988-4.25 15.342-8.009 21.087-7.526a5.014 5.014 0 0 1 4.599 4.941c.073 6.451-.031 20.992-2.049 33.61-.409 2.561-2.728 4.36-5.315 4.177-7.795-.553-24.201-2.178-37.093-6.577a5.02 5.02 0 0 1-3.345-3.898c-1.528-8.868-6.276-35.804-8.759-43.106-2.332-6.853-11.868-9.199-15.942-9.899a4.93 4.93 0 0 1-3.265-2.113c-2.676-3.974-7.244-13.521 4.547-20.386a5.026 5.026 0 0 0 1.737-7.024c-3.009-4.824-5.526-12.633 3.335-19.151 9.006-6.625 17.604-2.919 22.559.532 2.003 1.395 4.67 1.098 6.412-.613.992-.974 2.42-1.532 4.449-.805 2.734.98 5.702-.733 6.394-3.553 1.329-5.418 5.061-11.721 15.186-12.16 17.966-.778 24.078 17.996 21.939 30.234s-21.665 11.974-32.221 8.319c-8.026-2.779-16.252 3.73-19.734 7.01a4.98 4.98 0 0 0-1.54 4.034" style="fill:url(#ad)"/><linearGradient id="ae" x1="1199.262" x2="1174.596" y1="952.02" y2="964.02" gradientUnits="userSpaceOnUse"><stop offset="0" style="stop-color:#ff928e"/><stop offset="1" style="stop-color:#feb3b1"/></linearGradient><path d="M1168.332 983.159s2.811-21.484-5.563-24.786c-8.373-3.303-18.662 1.576-13.153 15.508 6.854 17.33 18.716 9.278 18.716 9.278" style="fill:url(#ae)"/><linearGradient id="af" x1="1170.722" x2="1179.722" y1="1021.3" y2="1226.301" gradientUnits="userSpaceOnUse"><stop offset="0" style="stop-color:#fe7062"/><stop offset="1" style="stop-color:#ff928e"/></linearGradient><path d="M1253.39 1201.173c-102.409 32.149-96.961-111.99-97.624-113.004-40.597-62.038-63.394 20.635-59.46 32.29 36.008 130.365 126.782 123.91 162.153 98.302-4.405-6.852-5.409-12.882-5.069-17.588" style="fill:url(#af)"/><linearGradient id="ag" x1="512.48" x2="689.481" y1="2063.669" y2="1869.669" gradientTransform="rotate(17.241 -36.066 -1104.031)" gradientUnits="userSpaceOnUse"><stop offset="0" style="stop-color:#e1473d"/><stop offset="1" style="stop-color:#e9605a"/></linearGradient><path d="M1174.885 1178.939a2.6 2.6 0 0 1-1.419-1.081c-15.516-24.18-19.895-57.779-20.836-81.708a2.606 2.606 0 0 1 5.206-.205c.75 19.061 4.346 54.682 20.016 79.099a2.606 2.606 0 0 1-2.967 3.895" style="fill:url(#ag)"/><linearGradient id="ah" x1="513.696" x2="690.697" y1="2064.778" y2="1870.777" gradientTransform="rotate(17.241 -36.066 -1104.031)" gradientUnits="userSpaceOnUse"><stop offset="0" style="stop-color:#e1473d"/><stop offset="1" style="stop-color:#e9605a"/></linearGradient><path d="M1146.287 1211.694a2.6 2.6 0 0 1-.9-.491c-23.405-19.613-41.039-50.434-52.411-91.604a2.607 2.607 0 0 1 1.818-3.206 2.607 2.607 0 0 1 3.205 1.818c11.085 40.133 28.155 70.077 50.736 88.998a2.606 2.606 0 0 1-2.448 4.485" style="fill:url(#ah)"/><linearGradient id="ai" x1="1333.556" x2="1309.556" y1="1049.021" y2="1115.02" gradientUnits="userSpaceOnUse"><stop offset="0" style="stop-color:#ff928e"/><stop offset="1" style="stop-color:#feb3b1"/></linearGradient><path d="M1313.673 1171.077s-1.663 2.656-13.653 11.946-24.062 14.651-14.896 1.883 4.706-19.357-5.755-5.603-17.939 19.067-17.939 19.067a139 139 0 0 1-8.042 2.803c-.34 4.706.664 10.736 5.069 17.588 4.149-1.372 6.493-2.385 6.493-2.385s31.715-5.771 38.508-19.276 10.215-26.023 10.215-26.023" style="fill:url(#ai)"/><linearGradient id="aj" x1="1439.806" x2="1434.986" y1="809.849" y2="1303.88" gradientUnits="userSpaceOnUse"><stop offset="0" style="stop-color:#dae3fe"/><stop offset="1" style="stop-color:#e9effd"/></linearGradient><path d="M1261.054 961.885c-3.833-1.315-3.282-6.917.737-7.438 18.313-2.375 45.155-9.545 53.945-31.032 13.792-33.714-14.777-163.703 116.467-186.961 121.065-21.454 188.494 16.857 186.961 128.727-1.485 108.437-175.75 159.28-358.11 96.704" style="fill:url(#aj)"/><linearGradient id="ak" x1="1468.25" x2="1466.462" y1="777.478" y2="960.738" gradientUnits="userSpaceOnUse"><stop offset="0" style="stop-color:#09005d"/><stop offset="1" style="stop-color:#1a0f91"/></linearGradient><path d="M1470.678 960.779c-.293 0-.586-.115-.804-.344-.298-.314-7.277-7.774-6.386-16.767.235-2.372.993-4.614 2.268-6.717a16 16 0 0 1-1.378-1.09c-3.022-2.679-7.144-8.684-.797-18.801 3.547-5.658 9.092-10.462 17.448-15.115 2.975-1.657 6.29-3.219 9.799-4.869 7.723-3.637 16.033-7.549 21.879-13.154-9.905-5.378-21.764-8.138-33.74-7.783-2.931.084-6.491.403-10.402.983 3.775 8.391 4.527 18.247 1.597 27.404-4.203 13.146-15.027 21.225-28.951 21.613-6.982.16-16.883-1.622-21.876-7.378-2.688-3.1-3.666-6.923-2.906-11.363a24 24 0 0 1 2.703-7.633c-2.718-1.98-4.883-4.67-6.341-7.943a23 23 0 0 1-.679-1.713c-12.6-2.491-23.267-12.381-26.847-26.111-4.068-15.6.889-30.268 13.261-39.233q.807-.585 1.636-1.124c1.26-4.845 3.239-9.314 4.798-12.117 9.58-17.213 26.899-29.497 46.33-32.859 22.634-3.903 53.833 1.596 66.85 17.603 6.636 8.157 8.13 18.123 4.46 29.659q.007.072.012.147c1.92-1.167 4.134-1.642 6.5-1.378 4.265.479 8.811 3.381 11.583 7.39 4.393 6.353 4.757 13.808 1.025 20.993-1.801 3.466-4.401 6.528-7.46 8.967 3.397 1.735 7.029 2.967 10.521 3.981a1.108 1.108 0 0 1-.224 2.172c-6.759.513-12.094 4.139-14.271 9.699-1.49 3.806-1.341 7.923.31 11.735 4.994-1.358 13.539-2.22 17.721.892 1.875 1.395 2.685 3.466 2.343 5.989-.466 3.433-2.391 4.733-3.925 5.218-4.676 1.482-11.831-2.645-14.188-5.185a21.5 21.5 0 0 1-3.075-4.232q-.324.122-.591.243c-.683.31-1.391.676-2.1 1.089 1.532 2.4 2.632 5.001 2.856 7.609.289 3.353-.905 6.245-3.549 8.59-3.401 3.015-5.985 1.75-6.938 1.068-2.673-1.915-3.702-6.719-2.203-10.284 1.277-3.03 3.93-5.655 6.692-7.601-2.429-3.173-5.578-5.909-8.093-7.466a77 77 0 0 0-.8-.485c-6.105 6.058-14.851 10.176-22.974 13.999-3.474 1.635-6.755 3.18-9.665 4.8-8.016 4.466-13.307 9.028-16.648 14.356-4.119 6.565-3.984 12.086.39 15.961q.551.49 1.167.929c1.409-1.802 3.226-3.49 5.446-5.055 10.986-7.735 19.54-6.561 22.835-2.201 2.411 3.19 1.544 7.481-2.105 10.436-4.964 4.016-17.435 4.248-25.55-.182-1.097 1.817-1.748 3.741-1.948 5.759-.791 7.993 5.722 14.95 5.786 15.019a1.11 1.11 0 0 1-.04 1.568 1.08 1.08 0 0 1-.762.312m-1.755-24.478c7.271 3.869 18.531 3.799 22.875.284 2.71-2.194 3.406-5.157 1.731-7.373-2.231-2.954-9.344-4.685-19.788 2.677-1.957 1.377-3.565 2.853-4.818 4.412m-47.903-35.323c-1.164 2.11-1.99 4.373-2.404 6.795-.642 3.756.165 6.964 2.396 9.537 4.485 5.17 13.64 6.765 20.139 6.613 12.94-.36 22.997-7.863 26.901-20.07 2.826-8.833 2.02-18.353-1.755-26.369q-1.078.182-2.181.39c-5.672 14.066-20.162 28.921-37.384 25.241a20.4 20.4 0 0 1-5.712-2.137m103.895-6.126c-2.542 1.796-4.867 4.137-5.922 6.645-1.094 2.599-.39 6.301 1.449 7.62 1.436 1.022 3.062.063 4.174-.925 2.091-1.856 3.038-4.124 2.813-6.743-.189-2.189-1.148-4.457-2.514-6.597m-102.731 4.23a18 18 0 0 0 5.01 1.861c15.476 3.318 28.622-9.691 34.299-22.548-14.75 3.117-31.811 9.619-39.309 20.687m109.45-7.416a20 20 0 0 0 2.539 3.379c2.058 2.214 8.284 5.72 11.895 4.579 1.36-.431 2.144-1.544 2.396-3.403.234-1.722-.247-3.002-1.469-3.912-3.264-2.43-10.767-1.787-15.361-.643m-116.994-1.159q.086.209.179.414c1.267 2.846 3.136 5.196 5.48 6.942 2.252-3.359 5.293-6.312 8.845-8.889a39 39 0 0 1-5.731 1.356 32.3 32.3 0 0 1-8.773.177m101.662-7.076q.207.125.413.253c2.584 1.599 6.082 4.564 8.794 8.144a25 25 0 0 1 2.457-1.285q.249-.114.54-.227c-1.786-4.302-1.943-8.987-.284-13.221 1.976-5.049 6.182-8.703 11.639-10.293-2.575-.895-5.15-1.956-7.599-3.292-2.966 1.984-6.257 3.407-9.612 4.1l-.005.141c-.264 6.42-2.68 11.495-6.343 15.68m-102.481 4.728c3.005.464 6.111.477 9.247-.022 11.648-1.83 22.906-9.513 33.532-22.869q-.155-.12-.31-.236c-7.153-5.406-16.307-7.633-24.476-5.976-6.801 1.384-12.226 5.292-15.688 11.304a23.4 23.4 0 0 0-2.373 5.833 12.6 12.6 0 0 0 3.914 2.008 1.109 1.109 0 0 1-.648 2.122 14.4 14.4 0 0 1-3.749-1.774c-.493 3.235-.317 6.537.551 9.61m-14.363-61.324c-11.332 8.432-15.834 22.081-12.045 36.606 3.25 12.468 12.71 21.563 24 24.246-.799-3.455-.831-7.124-.117-10.678-6.641-6.056-9.06-17.764-8.49-25.854.087-1.245.529-3.676 1.278-6.825-1.621-1.17-2.873-2.705-3.744-4.601-1.706-3.71-1.704-8.343-.882-12.894m81.516 47.056c11.882 0 23.548 2.937 33.336 8.38a23.84 23.84 0 0 0 6.105-14.755c-.727.078-1.452-.32-2.176-.32h-.245c-7.836 0-15.458-2.456-22.791-8.216-5.986 3.301-12.598 5.554-19.541 5.664-2.891.059-5.764-.159-8.583-.824a43.6 43.6 0 0 1-1.159 8.371 38 38 0 0 1 1.608 2.783c4.236-.639 8.126-.974 11.375-1.067.691-.019 1.382-.016 2.071-.016m-22.67-7.204c-4.734 5.941-9.603 10.798-14.59 14.556 6.173-2.426 12.698-4.185 18.799-5.374a37 37 0 0 0 1.019-3.219 33 33 0 0 0-5.228-5.963m-52.232-21.192c-.606 2.601-.971 4.644-1.055 5.816-.509 7.228 1.456 17.538 6.898 23.241a25.4 25.4 0 0 1 2.291-5.296c3.787-6.58 9.723-10.86 17.166-12.375 8.79-1.785 18.603.6 26.255 6.381q.17.127.337.256a114 114 0 0 0 1.641-2.201c-9.084-4.256-17.222-12.182-23.174-22.936a59 59 0 0 1-1.731-3.392c-6.226 7.856-15.837 13.542-25.08 11.655a15.8 15.8 0 0 1-3.548-1.149m53.599 19.44a35 35 0 0 1 4.513 4.845c.404-2.136.635-4.289.699-6.437a38 38 0 0 1-3.196-1.12q-1.004 1.39-2.016 2.712m37.546-6.68c6.768 5.162 13.626 7.631 21.005 7.616a20 20 0 0 0 2.246-.145c-.001-3.552-.379-7.026-.746-10.403-.21-1.938-.424-3.899-.568-5.889-1.304-3.151-2.313-7.137-2.343-11.027-4.78 7.747-11.565 14.927-19.594 19.848m24.638-3.84.072.667c.361 3.318.731 6.728.757 10.256 2.579-.589 5.11-1.646 7.45-3.08-3.144-1.999-6.001-4.534-8.279-7.843m-54.74 7.243a33.8 33.8 0 0 0 8.514.992c6.271-.1 12.262-1.854 17.735-4.733-3.916-3.353-7.747-7.531-11.479-12.524-1.943-2.599-4.262-5.699-6.105-9.097-2.485 6.574-5.77 12.998-9.244 18.658.36 2.214.556 4.453.579 6.704m-4.106-1.3q.935.36 1.878.663a42 42 0 0 0-.199-3.151q-.839 1.28-1.679 2.488m58.328-11.462c.2.468.406.914.614 1.33 2.422 4.828 6.069 8.192 10.206 10.661 3.128-2.328 5.793-5.359 7.596-8.827 3.335-6.42 3.022-13.063-.88-18.71-2.386-3.45-6.407-6.041-10.006-6.446-2.349-.267-4.413.349-6.149 1.826-.007 3.041-.409 6.193-.962 9.342-.657 3.736-.662 7.276-.419 10.824m-85.131-15.947a56 56 0 0 0 2.165 4.358c5.802 10.484 13.735 18.16 22.546 22.174l.04-.059a110 110 0 0 0 3.254-4.923c-2.096-11.512-8.876-22.128-19.107-28.711a41 41 0 0 0-4.318-2.424 30 30 0 0 1-1.729 4.629 35 35 0 0 1-2.851 4.956m40.612.449c1.85 3.99 4.61 7.681 6.843 10.665 3.866 5.175 7.765 9.409 11.725 12.727 10.989-6.483 19.659-17.445 23.929-28.249q.568-1.44 1.03-2.844c-.643-6.084-3.474-10.895-10.255-14.231-9.024-4.43-22.271-3.775-29.84 2.636.136 6.096-1.208 12.728-3.432 19.296m-35.518-12.247a44 44 0 0 1 5.004 2.77c10.045 6.463 16.925 16.628 19.586 27.805 3.291-5.61 6.332-11.855 8.551-18.162-2.134-4.915-2.927-10.304-.11-15.626a18.2 18.2 0 0 1 3.673-4.776c-.103-1.923-.369-3.782-.822-5.554-1.668-6.537-5.782-11.471-12.227-14.664-9.681-4.8-22.289-.858-28.705 8.967q-.43.657-.806 1.324c5.145 4.487 7.165 10.866 5.856 17.916m-34.685 22.128q1.518.797 3.448 1.191c8.604 1.765 17.889-4.157 23.604-11.814-1.485-3.567-2.895-7.986-3.431-12.745-5.197-.951-10.519-.899-15.63.165-3.519 7.807-6.34 16.718-7.991 23.203m-4.553-18.216c-1.159 4.817-1.481 9.879.293 13.739a9.4 9.4 0 0 0 2.319 3.149c1.561-6.043 4.027-13.934 7.163-21.197a38.5 38.5 0 0 0-9.775 4.309m118.296 6.728c-1.263 2.573-1.512 5.727-1.184 8.831q.138-1.452.396-2.935c.362-2.052.636-4.018.788-5.896m-87.829-11.392c.487 3.667 1.511 7.113 2.647 10.063a31 31 0 0 0 1.87-3.409 27.7 27.7 0 0 0 1.68-4.618 41.5 41.5 0 0 0-6.197-2.036m45.502-4.041a16 16 0 0 0-1.74 2.621c-1.948 3.678-1.853 7.497-.732 11.166 1.417-4.699 2.32-9.373 2.472-13.787m-11.819-36.695c-5.048 0-9.972.401-14.542 1.191-18.777 3.247-35.513 15.115-44.77 31.75-1.255 2.257-2.807 5.647-3.988 9.401a41 41 0 0 1 10.085-3.84c3.676-7.899 8.15-14.649 13.095-16.821 2.604-1.146 5.143-.962 7.569.544q.346-.596.732-1.187c7.02-10.746 20.877-15.026 31.546-9.743 7.052 3.494 11.557 8.911 13.391 16.102a29.5 29.5 0 0 1 .761 4.393c8.413-6.035 21.755-6.507 30.976-1.973 5.925 2.913 9.076 6.901 10.551 11.456 1.831-8.956.094-16.758-5.198-23.265-9.906-12.183-30.948-18.008-50.208-18.008m-33.914 38.408c2.34.524 4.65 1.243 6.902 2.16.768-4.64.22-10.328-4.79-14.946-1.878 4.204-2.385 8.597-2.112 12.786m-9.48-1.048c2.415 0 4.834.201 7.233.607-.221-4.505.422-9.234 2.573-13.774-1.836-1.185-3.689-1.343-5.64-.483-4.04 1.776-7.898 7.397-11.222 14.233a43 43 0 0 1 7.056-.583" style="fill:url(#ak)"/><path d="M844.365 306.167s-.852.195-1.813.874c-.903.692-1.84 1.939-3.043 2.862-2.248 1.699-4.231 3.721-4.231 3.721l-.028.023c-.736.604-1.24 1.253-.613 2.073s1.565.793 2.326.218c0 0 2.184-1.829 4.46-3.545.563-.435 1.08-.927 1.608-1.336.578-.442.818-.686 1.171-.987.319-.273.542-.524.838-.706.255-.177.395-.284.395-.284l.64-.449c.768-.531 1.126-1.375.541-2.199s-1.521-.865-2.24-.274zM825.356 319.201l-9.539 6.15c-.796.513-.98 1.619-.411 2.47s1.674 1.126 2.47.612l9.547-6.138c.8-.514.986-1.624.416-2.479s-1.681-1.131-2.481-.617zM806.49 332.19l-10.218 4.753c-.832.441-1.188 1.224-.688 2.106.501.882 1.536 1.095 2.368.654l10.027-5.391c.836-.442 1.272-.975.77-1.861s-1.375-.261-2.256-.261zM786.506 343.747l-10.803 3.124c-.865.362-1.363.752-.939 1.661s1.398 1.034 2.263.672l10.491-4.551c.868-.362 1.494-.195 1.068-1.109s-1.22.202-2.077.202zM764.217 345.965l-10.671 5.049c-.895.27-1.196 2.109-.86 3.041.337.932 1.409 1.902 2.304 1.632l11.016-3.091c.898-.27 1.07-2.868.734-3.805-.337-.936-1.696-2.826-2.521-2.826zM742.642 357.055l-11.254 1.21c-.919.164-1.422.654-1.189 1.602.234.949 1.194 1.379 2.113 1.215l11.375-2.126c.923-.164 1.384-.294 1.15-1.247s-1.415-.655-2.193-.655h-.002zM718.969 357.055l-11.028 1.375c-.934.043-1.293 1.27-1.178 2.224s1.116 1.903 2.05 1.861l11.716-.42c.938-.042 1.033-1.637.919-2.595s-.11-.227-2.476-2.445zM697.212 359.273l-11.792-1.264c-.933-.086-1.734.503-1.746 1.447s.719 1.725 1.653 1.811l11.713 1.037c.937.087 1.772-.41 1.785-1.358s-.709-1.673-1.608-1.673zM674.05 356.989l-11.893-1.736c-.925-.121-1.802.428-1.849 1.361a1.77 1.77 0 0 0 1.544 1.852l11.691 1.504c.928.122 1.887-.334 1.935-1.27s-.932-2.119-1.426-1.712zM650.634 354.837l-11.77-3.055c-.913-.177-1.798.014-1.901.93s.522 1.597 1.434 1.774l11.628 2.152c.916.178 1.86.342 1.965-.577s-.609-1.223-1.352-1.223zM627.333 348.183l-11.49-3.304a1.536 1.536 0 0 0-1.963 1.153c-.19.887.378 1.831 1.268 2.094l11.473 3.369a1.56 1.56 0 0 0 1.978-1.176c.192-.89-.374-2.135-1.26-2.135h-.006zM604.785 341.529s-2.755-1.579-5.509-2.817c-2.617-1.362-5.235-2.895-5.235-2.895l-.107-.141c-.827-.431-1.791-.166-2.151.643-.361.809.017 1.792.844 2.223 0 0 2.758 1.426 5.517 2.863 2.753 1.241 5.505 2.477 5.505 2.477.851.385 1.796.358 2.111-.479.314-.837-.133-1.875-.97-1.875h-.005zM583.331 329.148s-.106-.566-.968-1.326c-.424-.381-.727-.851-1.177-1.335-.478-.48-.87-1.007-1.38-1.519-.949-1.109-1.911-2.19-2.519-3.098-.651-.881-1.054-1.472-1.054-1.472l-.075-.123c-.556-.753-1.568-.953-2.269-.445s-.817 1.526-.261 2.28c0 0 .479.649 1.194 1.624.681 1.006 1.779 2.175 2.829 3.394l1.684 1.692c.538.565 1.041.975 1.472 1.362l1.436 1.269c.703.623 1.257.646 1.818-.021.561-.668-.729-1.449-.729-2.277zM570.023 310.591s.749-1.052.567-2.164c-.115-.574.27-1.337.236-1.97-.024-.321.169-.73.145-1.067-.012-.112.081-.503.071-.421l.081-.573c.023-.358.049-.773.092-1.087.053-.29.118-.58.169-.856.078-.55.313-1.127.425-1.59.344-.922.602-1.533.602-1.533l.033-.075c.337-.805-.055-1.787-.876-2.193-.816-.403-1.748-.086-2.09.708 0 0-.309.718-.718 1.827-.153.595-.399 1.204-.53 2.015l-.203 1.235c-.049.402-.044.744-.069 1.122l-.027.553c.007.452.026.47.039.724l.086 1.163c.048.765.114 1.459.222 1.995l.301 1.855c.147.902.108 1.88.988 1.801s.458-.761.458-1.467v-.002zM579.511 291.621s1.947-2.091 4.18-3.833c2.322-1.396 4.502-2.965 4.502-2.965l.072-.173c.73-.439.775-1.374.284-2.152-.49-.778-.51-1.885-2.341-.542l-.009-.011s-2.431 1.433-4.972 2.965c-2.237 1.742-4.419 3.434-4.419 3.434-.675.525-.446 1.865.126 2.594.571.728 1.909 1.233 2.569.69zM598.209 279.425s.755.545 1.822.356c.52-.069 1.207.075 1.814.069.623-.041 1.299.083 1.963.039.663-.059 1.353.145 1.983.159a6.5 6.5 0 0 1 1.703.261c.973.214 1.623.377 1.623.377l.294.075c.861.189 1.656-.352 1.775-1.214.119-.857-.475-1.703-1.329-1.897 0 0-.803-.181-2.008-.456-.607-.171-1.301-.241-2.041-.267-.741-.024-1.535-.148-2.322-.087l-2.311.157c-.764.03-1.316.203-1.871.277l-1.778.312c-.851.146-1.414.306-1.204 1.184.211.878 1.058.654 1.878.654zM614.383 287.338s2.158.508 2.771 1.48c.153.243 1.194.436 1.369.715.179.28.691.515.832.807.257.578.75 1.176 1.023 1.792.212.678.534 1.348.733 1.983.229.626.608 1.212.72 1.736.216 1.05.615 1.716.615 1.716l.045.147c.183.87.787 1.515 1.632 1.4.846-.114 1.276-.893 1.097-1.763 0 0-.213-.768-.449-1.931-.123-.581-.258-1.258-.513-1.977-.226-.721-.481-1.487-.722-2.256-.322-.776-.696-1.554-1.026-2.28-.319-.769-.684-1.323-.993-1.801-.611-.973-1.02-1.621-1.02-1.621-.484-.77-3.211-.903-3.933-.47-.722.432-2.182 1.512-2.182 2.317v.006zM621.037 309.083s.323 2.924-.002 5.849c-.521 2.794-.717 5.588-.717 5.588l.142.108c-.157.841.481 1.706 1.324 1.931s1.694-.274 1.851-1.115c0 0 .571-2.958 1.123-5.916.329-2.924.668-5.847.668-5.847.097-.859-1.163-1.69-2.019-1.856-.856-.165-2.369.397-2.369 1.256v.002zM616.565 330.439s-.659 3.158-1.743 5.83c-1.21 2.536-2.207 5.316-2.207 5.316l.071.194c-.359.752.029 1.766.799 2.19.771.424 1.713.189 2.071-.563 0 0 1.279-2.634 2.545-5.284 1.088-2.671 2.182-5.333 2.182-5.333.317-.778-.491-2.201-1.284-2.584-.793-.384-1.729.233-2.432.233h-.002zM607.704 350.401l-6.855 9.873c-.474.668-.421 1.933.276 2.469s1.584.571 2.058-.097l6.58-9.213c.477-.67.536-2.192-.163-2.73-.7-.539-2.18-2.521-1.892-.303h-.004zM593.263 370.363l-7.717 7.786c-.556.587-.457 1.329.166 1.941s1.603.516 2.159-.071l7.827-8.294c.559-.589.423-1.133-.203-1.748-.625-.616-1.46.386-2.227.386zM577.496 385.441l-1.315 1.188-2.914 2.552-4.278 3.723c-.604.526-.635 1.484-.069 2.14s1.513.763 2.117.238l4.283-3.717 2.955-2.582 1.317-1.186c.598-.538.613-1.502.035-2.153-.579-.651-1.532-.742-2.129-.203zM560.312 400.08l-8.949 6.968c-.626.487-.704 1.43-.174 2.106s1.466.829 2.092.342l8.958-6.957c.629-.489.709-1.435.177-2.115-.532-.679-1.473-.834-2.102-.345zM542.269 413.685l-9.384 6.382c-.651.442-.783 1.365-.296 2.062s1.409.905 2.059.463l9.392-6.37c.654-.443.788-1.371.299-2.072s-1.415-.91-2.069-.466zM523.358 426.064l-9.84 5.685c-.676.39-.869 1.289-.431 2.008s1.34.986 2.016.596l9.847-5.672c.68-.391.874-1.294.435-2.016-.439-.723-1.346-.992-2.026-.601zM503.336 436.728l-10.208 4.971c-.702.329-.91 1.259-.531 1.999.38.74 1.281 1.105 1.983.777l10.332-4.816c.705-.33.871-1.319.49-2.063s-1.481-1.348-2.064-.869zM482.842 446.536l-10.276 4.911c-.693.331-.945 1.192-.564 1.923s1.249 1.056 1.941.725l10.283-4.899c.696-.332.951-1.196.569-1.931s-1.256-1.062-1.952-.73zM462.352 456.589l-10.05 5.327c-.671.356-.888 1.22-.484 1.931.403.711 1.273 1 1.943.644l10.057-5.314c.674-.356.893-1.225.489-1.939-.404-.715-1.279-1.005-1.953-.649zM442.326 467.48l-9.799 5.75c-.648.38-.827 1.247-.402 1.936.426.689 1.295.941 1.942.561l9.807-5.738c.651-.381.833-1.252.406-1.945s-1.301-.946-1.953-.565zM422.815 479.224l-9.522 6.18c-.623.405-.765 1.273-.317 1.939s1.315.88 1.939.475l9.53-6.169c.627-.406.77-1.278.321-1.948s-1.322-.884-1.949-.479zM403.872 491.835l-9.216 6.615c-.597.429-.701 1.296-.23 1.938.47.642 1.334.816 1.931.387l9.225-6.604c.601-.43.705-1.302.234-1.947-.471-.646-1.341-.82-1.942-.39zM385.555 505.32l-8.882 7.053c-.57.453-.633 1.319-.142 1.935s1.351.749 1.92.296l8.891-7.042c.573-.454.638-1.324.145-1.944s-1.358-.754-1.931-.299zM367.923 519.685l-8.516 7.491c-.541.476-.565 1.338-.052 1.927.512.588 1.365.68 1.906.204l8.526-7.481c.544-.477.569-1.344.055-1.936s-1.372-.684-1.917-.207zM351.039 534.928l-8.119 7.927c-.511.499-.493 1.356.039 1.915s1.376.609 1.887.11l8.129-7.917c.514-.5.497-1.362-.037-1.924-.534-.563-1.384-.613-1.898-.112zM334.967 551.046l-7.689 8.359c-.479.52-.42 1.37.132 1.898.551.528 1.385.535 1.863.015l7.699-8.349c.482-.522.424-1.376-.13-1.908-.553-.531-1.393-.539-1.874-.016zM319.774 568.028l-7.229 8.793c-.445.541-.344 1.381.225 1.877.569.495 1.39.459 1.835-.082l7.24-8.784c.448-.544.348-1.388-.224-1.887s-1.398-.463-1.846.081zM305.522 585.877l-6.723 9.209c-.409.561-.267 1.389.319 1.85s1.392.381 1.802-.18l6.734-9.2c.413-.563.27-1.396-.319-1.86s-1.4-.383-1.812.18zM292.306 604.556l-6.173 9.614c-.372.58-.186 1.393.415 1.818.602.424 1.39.299 1.762-.28l6.185-9.606c.375-.582.189-1.401-.415-1.828s-1.398-.302-1.773.28zM280.216 624.042l-2.81 4.992a159 159 0 0 0-1.921 3.464l-.851 1.577c-.325.602-.085 1.396.535 1.774s1.385.197 1.71-.405l.853-1.576c.505-.955 1.19-2.162 1.904-3.425l2.816-4.988c.338-.598.111-1.4-.506-1.791-.617-.39-1.391-.222-1.729.376zM269.367 644.343l-4.907 10.399c-.29.614-.015 1.389.614 1.732s1.373.125 1.662-.49l4.919-10.392c.292-.617.016-1.397-.615-1.742-.632-.345-1.381-.126-1.673.491zM259.872 665.4l-4.186 10.763c-.244.628.076 1.379.716 1.677s1.356.031 1.6-.597l4.199-10.757c.247-.631-.075-1.387-.717-1.687-.643-.3-1.364-.032-1.61.6zM251.861 687.182l-3.388 11.102c-.195.641.172 1.362.82 1.612.648.249 1.332-.067 1.527-.708l3.401-11.097c.198-.644-.171-1.37-.822-1.622-.652-.251-1.34.067-1.537.712zM245.49 709.633l-2.509 11.403c-.143.651.271 1.338.925 1.535s1.3-.171 1.443-.822l2.522-11.398c.145-.655-.271-1.346-.928-1.544-.658-.199-1.308.171-1.453.826M240.925 732.668l-1.548 11.649c-.087.658.374 1.304 1.03 1.445.656.14 1.259-.278 1.346-.936l1.562-11.647c.089-.661-.374-1.312-1.035-1.454s-1.267.279-1.355.941zM238.332 756.172l-.501 11.825c-.028.66.48 1.26 1.134 1.34a1.085 1.085 0 0 0 1.235-1.049l.515-11.824a1.323 1.323 0 0 0-1.139-1.349 1.092 1.092 0 0 0-1.243 1.055zM237.889 779.989l.489 9.832c.033.657.584 1.205 1.23 1.223.647.018 1.145-.5 1.112-1.157l-.478-9.832c-.032-.661-.585-1.211-1.235-1.23s-1.151.502-1.119 1.162v.002z" style="fill:#fff"/><path d="m878.915 252.346-6.524 43.774 32.451-14.401z" style="fill:#7d97f4"/><path d="M1079.501 256.557 945.834 342.63a11.2 11.2 0 0 1-15.703-3.712l-81.363-137.46a4.49 4.49 0 0 1 5.048-6.618z" style="fill:#91b3fa"/><path d="m878.928 252.354 200.573 4.203-187.511 18.021-2.326 12.062z" style="fill:#7d97f4"/><path d="m899.834 287.696-27.443 8.424 19.599-21.542z" style="fill:#7d97f4"/></svg>